<?xml version="1.0" encoding="UTF-8" standalone="no"?>
<!-- Created with Inkscape (http://www.inkscape.org/) -->

<svg
   xmlns:dc="http://purl.org/dc/elements/1.1/"
   xmlns:cc="http://creativecommons.org/ns#"
   xmlns:rdf="http://www.w3.org/1999/02/22-rdf-syntax-ns#"
   xmlns:svg="http://www.w3.org/2000/svg"
   xmlns="http://www.w3.org/2000/svg"
   xmlns:sodipodi="http://sodipodi.sourceforge.net/DTD/sodipodi-0.dtd"
   xmlns:inkscape="http://www.inkscape.org/namespaces/inkscape"
   width="1024"
   height="500"
   id="svg2"
   version="1.1"
   inkscape:version="0.91 r13725"
   sodipodi:docname="feature_graphic.svg">
  <defs
     id="defs4" />
  <sodipodi:namedview
     id="base"
     pagecolor="#ffffff"
     bordercolor="#666666"
     borderopacity="1.0"
     inkscape:pageopacity="0.0"
     inkscape:pageshadow="2"
     inkscape:zoom="1.8046501"
     inkscape:cx="468.49837"
     inkscape:cy="308.51182"
     inkscape:document-units="px"
     inkscape:current-layer="layer1"
     showgrid="false"
     inkscape:window-width="1855"
     inkscape:window-height="1056"
     inkscape:window-x="65"
     inkscape:window-y="24"
     inkscape:window-maximized="1" />
  <metadata
     id="metadata7">
    <rdf:RDF>
      <cc:Work
         rdf:about="">
        <dc:format>image/svg+xml</dc:format>
        <dc:type
           rdf:resource="http://purl.org/dc/dcmitype/StillImage" />
        <dc:title />
      </cc:Work>
    </rdf:RDF>
  </metadata>
  <g
     inkscape:label="Layer 1"
     inkscape:groupmode="layer"
     id="layer1"
     transform="translate(0,-552.36218)">
    <g
       id="g3869"
       transform="matrix(4.3326449,0,0,4.3326449,-1319.2689,-1811.6443)">
      <path
         id="rect3066"
         d="m 476.5,560.40625 c -2.49637,0 -4.5,2.03488 -4.5,4.53125 l 0,76.78125 c 0,2.49637 2.00363,4.53125 4.5,4.53125 l 32.625,0 c 2.49637,0 4.53125,-2.03488 4.53125,-4.53125 l 0,-76.78125 c 0,-2.49637 -2.03488,-4.53125 -4.53125,-4.53125 l -32.625,0 z m 16.28125,8.8125 c 5.50433,0 9.9375,4.46442 9.9375,9.96875 0,5.50433 -4.43317,9.96875 -9.9375,9.96875 -5.50433,0 -9.96875,-4.46442 -9.96875,-9.96875 0,-5.50433 4.46442,-9.96875 9.96875,-9.96875 z m 0,24.15625 c 5.50433,0 9.9375,4.46442 9.9375,9.96875 0,5.50433 -4.43317,9.96875 -9.9375,9.96875 -5.50433,0 -9.96875,-4.46442 -9.96875,-9.96875 0,-5.50433 4.46442,-9.96875 9.96875,-9.96875 z m 0,23.8125 c 5.50433,0 9.9375,4.46442 9.9375,9.96875 0,5.50433 -4.43317,9.96875 -9.9375,9.96875 -5.50433,0 -9.96875,-4.46442 -9.96875,-9.96875 0,-5.50433 4.46442,-9.96875 9.96875,-9.96875 z"
         style="color:#000000;fill:#000000;fill-opacity:1;fill-rule:nonzero;stroke:none;stroke-width:1;marker:none;visibility:visible;display:inline;overflow:visible;enable-background:accumulate"
         inkscape:connector-curvature="0" />
      <path
         sodipodi:nodetypes="ccccc"
         inkscape:connector-curvature="0"
         id="path3842"
         d="m 455.10611,569.73803 13.58262,0 0,14.64101 -13.49442,-13.05343 z"
         style="fill:#000000;fill-opacity:1;stroke:#000000;stroke-width:0.2308059px;stroke-linecap:round;stroke-linejoin:round;stroke-opacity:1" />
      <path
         style="fill:#000000;fill-opacity:1;stroke:#000000;stroke-width:0.2308059px;stroke-linecap:round;stroke-linejoin:round;stroke-opacity:1"
         d="m 455.10611,593.68658 13.58262,0 0,14.64101 -13.49442,-13.05343 z"
         id="path3844"
         inkscape:connector-curvature="0"
         sodipodi:nodetypes="ccccc" />
      <path
         sodipodi:nodetypes="ccccc"
         inkscape:connector-curvature="0"
         id="path3846"
         d="m 455.10611,617.85307 13.58262,0 0,14.64101 -13.49442,-13.05343 z"
         style="fill:#000000;fill-opacity:1;stroke:#000000;stroke-width:0.2308059px;stroke-linecap:round;stroke-linejoin:round;stroke-opacity:1" />
      <path
         style="fill:#000000;fill-opacity:1;stroke:#000000;stroke-width:0.2308059px;stroke-linecap:round;stroke-linejoin:round;stroke-opacity:1"
         d="m 531.13353,569.73803 -13.58262,0 0,14.64101 13.49442,-13.05343 z"
         id="path3848"
         inkscape:connector-curvature="0"
         sodipodi:nodetypes="ccccc" />
      <path
         sodipodi:nodetypes="ccccc"
         inkscape:connector-curvature="0"
         id="path3850"
         d="m 531.13353,593.68658 -13.58262,0 0,14.64101 13.49442,-13.05343 z"
         style="fill:#000000;fill-opacity:1;stroke:#000000;stroke-width:0.2308059px;stroke-linecap:round;stroke-linejoin:round;stroke-opacity:1" />
      <path
         style="fill:#000000;fill-opacity:1;stroke:#000000;stroke-width:0.2308059px;stroke-linecap:round;stroke-linejoin:round;stroke-opacity:1"
         d="m 531.13353,617.85307 -13.58262,0 0,14.64101 13.49442,-13.05343 z"
         id="path3852"
         inkscape:connector-curvature="0"
         sodipodi:nodetypes="ccccc" />
    </g>
    <text
       xml:space="preserve"
       style="font-size:43.30324936px;font-style:normal;font-weight:normal;line-height:125%;letter-spacing:0px;word-spacing:0px;fill:#000000;fill-opacity:1;stroke:none;font-family:Sans"
       x="50.975239"
       y="906.71307"
       id="text3136"
       sodipodi:linespacing="125%"><tspan
         sodipodi:role="line"
         id="tspan3138"
         x="50.975239"
         y="906.71307"
         style="font-size:86.60649872px;font-style:normal;font-variant:normal;font-weight:normal;font-stretch:normal;font-family:Roboto;-inkscape-font-specification:Roboto">Ampel Control</tspan></text>
    <text
       xml:space="preserve"
       style="font-style:normal;font-weight:normal;font-size:43.30324936px;line-height:125%;font-family:Sans;letter-spacing:0px;word-spacing:0px;fill:#000000;fill-opacity:1;stroke:none"
       x="49.066978"
       y="973.68915"
       id="text3142"
       sodipodi:linespacing="125%"><tspan
         sodipodi:role="line"
         id="tspan3144"
         x="49.066978"
         y="973.68915"
         style="font-style:normal;font-variant:normal;font-weight:normal;font-stretch:condensed;font-size:49.79873657px;font-family:Roboto;-inkscape-font-specification:'Roboto Condensed'">c-base assembly @ 32C3</tspan></text>
  </g>
</svg>
